{"title":"Rugby.Union-LV=Cup.Highlights-2013.03.17.pdtv.x264","uid":8278660,"size":464051242,"categoryP":"video","categoryS":"tv_shows","magnet":"?xt=urn:btih:5ca6168e96236a84e0f47170b0906ce9b1295216&amp;dn=Rugby.Union-LV%3DCup.Highlights-2013.03.17.pdtv.x264&amp;tr=udp%3A%2F%2Ftracker.openbittorrent.com%3A80&amp;tr=udp%3A%2F%2Fopen.demonii.com%3A1337&amp;tr=udp%3A%2F%2Ftracker.coppersurfer.tk%3A6969&amp;tr=udp%3A%2F%2Fexodus.desync.com%3A6969","seeders":1,"leechers":0,"uploader":"rugbybill","files":4,"time":1363739700,"description":"SPORT: Rugby Highlights - LV= Cup\nOn: itv\nDate: Sunday 17th March \nTime: 23:15 to 00:15 \n\nMartin Bayfield presents action from the LV= Cup final, played at Sixways stadium in Worcester.The Anglo-Welsh tournament has been dominated by teams from the English Aviva Premiership this season, and the four semi-finalists are Harlequins, Bath, Sale and Saracens.\n\n[442Mb, 45mins, 720x416[16:9], 1227Kbps, x264/mp4; Audio: AAC-LC, 128Kbps]\n\nGeneral\nComplete name: 2013.03.17.LV.Cup.Highights.pdtv.x264.mp4\nFormat : MPEG-4\nFormat profile : Base Media\nCodec ID : isom\nFile size: 442 MiB\nDuration : 45mn 37s\nOverall bit rate mode: Variable\nOverall bit rate : 1 355 Kbps\n\nVideo\nID : 1\nFormat : AVC\nFormat/Info: Advanced Video Codec\nFormat profile : &lt;a class=&quot;__cf_email__&quot; href=&quot;/cdn-cgi/l/email-protection&quot; data-cfemail=&quot;94dcfdf3fcd4d8a7baa5&quot;&gt;[email&amp;#160;protected]&lt;/a&gt;&lt;script cf-hash='f9e31' type=&quot;text/javascript&quot;&gt;\n/* &lt;![CDATA[ */!function(){try{var t=&quot;currentScript&quot;in document?document.currentScript:function(){for(var t=document.getElementsByTagName(&quot;script&quot;),e=t.length;e--;)if(t[e].getAttribute(&quot;cf-hash&quot;))return t[e]}();if(t&amp;&amp;t.previousSibling){var e,r,n,i,c=t.previousSibling,a=c.getAttribute(&quot;data-cfemail&quot;);if(a){for(e=&quot;&quot;,r=parseInt(a.substr(0,2),16),n=2;a.length-n;n+=2)i=parseInt(a.substr(n,2),16)^r,e+=String.fromCharCode(i);e=document.createTextNode(e),c.parentNode.replaceChild(e,c)}}}catch(u){}}();/* ]]&gt; */&lt;/script&gt;\nFormat settings, CABAC : Yes\nFormat settings, ReFrames: 5 frames\nCodec ID : avc1\nCodec ID/Info: Advanced Video Coding\nDuration : 45mn 37s\nBit rate : 1 227 Kbps\nMaximum bit rate : 3 199 Kbps\nWidth: 720 pixels\nHeight : 416 pixels\nDisplay aspect ratio : 1.731\nFrame rate mode: Constant\nFrame rate : 25.000 fps\nColor space: YUV\nChroma subsampling : 4:2:0\nBit depth: 8 bits\nScan type: Progressive\nBits/(Pixel*Frame) : 0.164\nStream size: 400 MiB (91%)\n\nAudio\nID : 2\nFormat : AAC\nFormat/Info: Advanced Audio Codec\nFormat profile : LC\nCodec ID : 40\nDuration : 45mn 37s\nBit rate mode: Variable\nBit rate : 124 Kbps\nMaximum bit rate : 132 Kbps\nChannel(s) : 2 channels\nChannel positions: Front: L R\nSampling rate: 48.0 KHz\nCompression mode : Lossy\nStream size: 40.4 MiB (9%)\nLanguage : English","torrent":{"xt":"urn:btih:5ca6168e96236a84e0f47170b0906ce9b1295216","amp;dn":"Rugby.Union-LV%3DCup.Highlights-2013.03.17.pdtv.x264","amp;tr":["udp%3A%2F%2Ftracker.openbittorrent.com%3A80","udp%3A%2F%2Fopen.demonii.com%3A1337","udp%3A%2F%2Ftracker.coppersurfer.tk%3A6969","udp%3A%2F%2Fexodus.desync.com%3A6969"],"infoHash":"5ca6168e96236a84e0f47170b0906ce9b1295216","infoHashBuffer":{"type":"Buffer","data":[92,166,22,142,150,35,106,132,224,244,113,112,176,144,108,233,177,41,82,22]},"announce":[],"urlList":[]}}